<?xml version="1.0" encoding="UTF-8" standalone="no"?>
<!-- Created with Inkscape (http://www.inkscape.org/) -->

<svg
   width="1908.22"
   height="1077.1654"
   viewBox="0 0 504.88323 285.00001"
   version="1.1"
   id="svg1"
   xml:space="preserve"
   inkscape:version="1.4 (e7c3feb1, 2024-10-09)"
   sodipodi:docname="bookshelf.svg"
   inkscape:export-filename="bookshelf.png"
   inkscape:export-xdpi="45.277798"
   inkscape:export-ydpi="45.277798"
   xmlns:inkscape="http://www.inkscape.org/namespaces/inkscape"
   xmlns:sodipodi="http://sodipodi.sourceforge.net/DTD/sodipodi-0.dtd"
   xmlns:xlink="http://www.w3.org/1999/xlink"
   xmlns="http://www.w3.org/2000/svg"
   xmlns:svg="http://www.w3.org/2000/svg"><sodipodi:namedview
     id="namedview1"
     pagecolor="#ffffff"
     bordercolor="#666666"
     borderopacity="1.0"
     inkscape:showpageshadow="2"
     inkscape:pageopacity="0.0"
     inkscape:pagecheckerboard="0"
     inkscape:deskcolor="#d1d1d1"
     inkscape:document-units="mm"
     inkscape:zoom="0.38787725"
     inkscape:cx="928.12868"
     inkscape:cy="474.37688"
     inkscape:window-width="1440"
     inkscape:window-height="769"
     inkscape:window-x="0"
     inkscape:window-y="25"
     inkscape:window-maximized="0"
     inkscape:current-layer="g7" /><defs
     id="defs1"><linearGradient
       id="linearGradient2"
       inkscape:collect="always"><stop
         style="stop-color:#b4804d;stop-opacity:1;"
         offset="0.49652779"
         id="stop2" /><stop
         style="stop-color:#342519;stop-opacity:1;"
         offset="0.55208337"
         id="stop3" /></linearGradient><linearGradient
       inkscape:collect="always"
       xlink:href="#linearGradient2"
       id="linearGradient3"
       x1="242.6635"
       y1="734.79926"
       x2="242.6635"
       y2="258.96753"
       gradientUnits="userSpaceOnUse"
       gradientTransform="matrix(1.0266244,0,0,1.1516933,5.9247099,-413.5124)" /></defs><g
     inkscape:label="Layer 1"
     inkscape:groupmode="layer"
     id="layer1"><g
       id="g7"
       inkscape:label="bookshelf-1"><path
         style="fill:#6d939f;fill-opacity:1;stroke:none;stroke-width:2.74302;stroke-linecap:butt;stroke-dasharray:none;stroke-opacity:1"
         d="m 5.8016996,505.74272 c 0,0 -2.3609136,-2.24874 -1.5777917,2.48404 0.783122,4.73279 2.503113,9.61533 4.5560944,11.40508 2.0529817,1.78974 445.8375077,-0.20021 463.4264677,-0.80586 4.3177,-0.14868 9.25612,-10.25691 7.90681,-12.55433 -1.74043,-2.9647 -5.36699,-1.52336 -7.82845,-2.24756 -4.2724,-1.25698 -11.44299,-2.34824 -11.44299,-2.34824 z"
         id="path77-4"
         inkscape:label="shadow"
         sodipodi:nodetypes="czzssscc"
         transform="matrix(1.0276062,0,0,0.59318385,5.6864827,-132.05168)" /><path
         style="fill:url(#linearGradient3);fill-opacity:1;stroke:#946b44;stroke-width:1.66576;stroke-dasharray:none;stroke-opacity:1"
         d="M 84.689511,165.60143 H 50.839853 c -31.150663,0 -37.666093,4.44233 -39.821153,2.24309 -1.5517282,-1.58353 1.836868,-4.9428 5.478271,-6.97449 5.105366,-2.84849 12.688612,-6.76544 15.203122,-7.93603 3.879865,-1.80622 8.123799,-1.52236 41.19454,-1.87993 l 333.721787,0.37036 h 32.33641 l 38.65706,-0.0551 c 0,0 5.93164,-0.23797 9.15769,1.9735 3.05978,2.0975 5.40998,3.93159 10.20039,9.40567 2.44451,2.79336 2.14334,3.37007 1.84244,3.36036 -8.49154,-0.27437 -25.0291,-0.99159 -25.0291,-0.99159 l -184.1899,0.48421 H 107.30886 Z"
         id="path78-7"
         sodipodi:nodetypes="cssssccccssscccc"
         inkscape:label="plank" /><path
         style="fill:#b4804d;fill-opacity:1;stroke:#946b44;stroke-width:2.0809;stroke-dasharray:none;stroke-opacity:1"
         d="M 75.588347,508.54592 H 42.469253 c -30.478352,0 -35.5322285,0.96165 -36.6563379,-0.87993 -1.5362,-2.51669 -1.0321943,-5.52608 0.8459643,-7.47194 1.9973765,-2.06937 7.7622566,-0.50568 40.1192436,-0.57993 l 356.349027,-0.0463 h 31.63851 l 27.11089,-0.036 c 0,0 16.76146,-0.16996 17.18147,0.41674 0.99055,0.84133 0.79756,4.23293 0.77777,5.99998 0,0 -0.26159,1.62034 -0.8831,1.93857 -0.62151,0.31823 -22.67017,0.55819 -22.67017,0.55819 l -180.21459,0.10053 H 97.719511 Z"
         id="path78"
         sodipodi:nodetypes="cssscccccczcccc"
         inkscape:label="front"
         transform="matrix(1.0276062,0,0,0.59318385,5.6864827,-132.05168)" /><path
         style="fill:#b17d4a;fill-opacity:1;stroke:#946b44;stroke-width:1.21648;stroke-dasharray:none;stroke-opacity:1"
         d="m 18.162457,508.78286 v 5.28439 c 0,4.82983 -0.0517,5.34305 -0.60764,5.96623 -0.68917,0.77342 -1.00793,0.83033 -1.84272,0.32895 -0.54448,-0.32699 -0.58766,-0.76544 -0.58766,-5.96626 v -5.61331 z"
         id="path63"
         sodipodi:nodetypes="cscsscc"
         inkscape:label="support-2"
         transform="matrix(1.0276062,0,0,0.59318385,5.6864827,-132.05168)" /><path
         style="fill:#b17d4a;fill-opacity:1;stroke:#946b44;stroke-width:1.21648;stroke-dasharray:none;stroke-opacity:1"
         d="m 466.23648,508.22826 v 5.2844 c 0,4.82982 -0.0517,5.34304 -0.60765,5.96622 -0.68916,0.77343 -1.00792,0.83033 -1.84271,0.32896 -0.54448,-0.327 -0.58767,-0.76545 -0.58767,-5.96626 v -5.61332 z"
         id="path63-4"
         sodipodi:nodetypes="cscsscc"
         inkscape:label="support-1"
         transform="matrix(1.0276062,0,0,0.59318385,5.6864827,-132.05168)" /><path
         style="fill:#b17d4a;fill-opacity:1;stroke:#946b44;stroke-width:1.21648;stroke-dasharray:none;stroke-opacity:1"
         d="m 149.01142,508.83017 v 5.2844 c 0,4.82982 -0.0517,5.34304 -0.60765,5.96622 -0.68916,0.77343 -1.00792,0.83033 -1.84271,0.32896 -0.54448,-0.327 -0.58767,-0.76545 -0.58767,-5.96626 v -5.61332 z"
         id="path63-4-5"
         sodipodi:nodetypes="cscsscc"
         inkscape:label="support-1"
         transform="matrix(1.0276062,0,0,0.59318385,5.6864827,-132.05168)" /><path
         style="fill:#b17d4a;fill-opacity:1;stroke:#946b44;stroke-width:1.21648;stroke-dasharray:none;stroke-opacity:1"
         d="m 315.8764,507.8428 v 5.2844 c 0,4.82982 -0.0517,5.34304 -0.60765,5.96622 -0.68916,0.77343 -1.00792,0.83033 -1.84271,0.32896 -0.54448,-0.327 -0.58767,-0.76545 -0.58767,-5.96626 v -5.61332 z"
         id="path63-4-5-9"
         sodipodi:nodetypes="cscsscc"
         inkscape:label="support-1"
         transform="matrix(1.0276062,0,0,0.59318385,5.6864827,-132.05168)" /><g
         id="g73"
         inkscape:label="shelf"
         transform="matrix(1.0276062,0,0,0.59318384,5.6864826,-132.05168)" /></g></g></svg>
