<?xml version="1.0" encoding="UTF-8" standalone="no"?>
<!-- Created with Inkscape (http://www.inkscape.org/) -->

<svg
   width="97.269188mm"
   height="55.34977mm"
   viewBox="0 0 97.269188 55.349769"
   version="1.1"
   id="svg1"
   xml:space="preserve"
   inkscape:version="1.4 (e7c3feb1, 2024-10-09)"
   sodipodi:docname="bookshelf.svg"
   xmlns:inkscape="http://www.inkscape.org/namespaces/inkscape"
   xmlns:sodipodi="http://sodipodi.sourceforge.net/DTD/sodipodi-0.dtd"
   xmlns:xlink="http://www.w3.org/1999/xlink"
   xmlns="http://www.w3.org/2000/svg"
   xmlns:svg="http://www.w3.org/2000/svg"><sodipodi:namedview
     id="namedview1"
     pagecolor="#ffffff"
     bordercolor="#666666"
     borderopacity="1.0"
     inkscape:showpageshadow="2"
     inkscape:pageopacity="0.0"
     inkscape:pagecheckerboard="0"
     inkscape:deskcolor="#d1d1d1"
     inkscape:document-units="mm"
     inkscape:zoom="0.3283063"
     inkscape:cx="865.04583"
     inkscape:cy="432.52292"
     inkscape:window-width="1384"
     inkscape:window-height="789"
     inkscape:window-x="0"
     inkscape:window-y="25"
     inkscape:window-maximized="0"
     inkscape:current-layer="layer1"><inkscape:page
       x="-7.9916233e-13"
       y="1.3970703e-16"
       width="97.26918"
       height="55.34977"
       id="page2"
       margin="0"
       bleed="0" /></sodipodi:namedview><defs
     id="defs1"><linearGradient
       id="linearGradient10"
       inkscape:collect="always"><stop
         style="stop-color:#d6cdb2;stop-opacity:1;"
         offset="0"
         id="stop10" /><stop
         style="stop-color:#a18965;stop-opacity:1;"
         offset="1"
         id="stop11" /></linearGradient><radialGradient
       inkscape:collect="always"
       xlink:href="#linearGradient10"
       id="radialGradient11"
       cx="-86.102852"
       cy="157.12328"
       fx="-86.102852"
       fy="157.12328"
       r="48.631329"
       gradientTransform="matrix(1,0,0,0.36891429,0,99.158257)"
       gradientUnits="userSpaceOnUse" /></defs><g
     inkscape:label="Layer 1"
     inkscape:groupmode="layer"
     id="layer1"
     transform="translate(-205.24709,-13.628301)"><g
       id="g9"
       transform="rotate(-0.01465833,-414591.14,-1328815.8)"><path
         style="fill:url(#radialGradient11);fill-opacity:1"
         d="m -47.622687,139.34079 c 3.492892,-0.31736 8.881496,-0.12006 9.241723,0.26067 0.379763,0.40177 0.236909,1.89078 0.303831,2.44934 0.0853,0.71195 0.50741,1.23436 0.57869,15.53507 0.0805,16.15948 0.06,16.4339 -1.23124,16.47297 -67.504817,2.04145 -93.739167,0.42582 -94.324047,-0.0867 l 4.4e-4,-1.8e-4 c 0,0 -1.09173,-0.36339 -1.20521,-0.95888 -0.11349,-0.59549 6e-5,-5.65653 6e-5,-5.65653 -0.0396,-3.09232 -0.15684,-8.71802 -0.26058,-12.50157 -0.10373,-3.78354 -0.18122,-8.83042 -0.1722,-11.2153 0,0 -0.0448,-3.79183 -0.0429,-3.89642 10e-4,-0.0844 0.056,-0.2297 0.12743,-0.33408 0.0437,-0.0639 0.0723,-0.0906 0.17603,-0.0953 0.21681,-0.01 3.83617,0.0189 3.83617,0.0189 2.61118,0.0186 4.48384,-0.0664 4.69915,-0.0709 l 1.51619,-0.003 c 0.26964,0.10538 17.38331,0.0867 37.307827,0.0979 19.92451,0.0112 36.26578,0.0598 36.31395,0.10795 0.0708,0.0708 1.00935,0.025 1.36377,-0.0665 v 0 -2e-5 z"
         id="path7"
         inkscape:label="sign" /><path
         id="path1"
         style="fill:#736038;fill-opacity:1;stroke-width:0.723481"
         d="m -120.40832,139.15627 c 0.71615,-0.41072 1.79047,-1.07451 2.56496,-1.50165 4.95337,-2.73181 13.99938,-8.0243 22.674474,-12.79075 1.405898,-0.92872 3.786413,-2.04702 5.413775,-2.92581 0.5457,-0.29108 0.528135,-0.40801 0.72377,-0.57938 l 0.881059,0.54123 -3.072563,1.67353 c -0.868903,0.47326 -2.5156,1.39371 -3.66806,2.03689 -7.134005,3.92404 -13.836965,7.99425 -20.859005,11.97316 -2.6226,1.4853 -6.32839,3.36594 -7.2622,3.89538 -1.47338,0.83535 -2.04164,0.9979 -2.23637,1.02474 -0.19473,0.0268 -0.62049,-0.26029 -0.63245,-0.44749 -0.012,-0.1872 0.4498,-0.55113 0.60379,-0.61067 0.15399,-0.0596 1.11298,-0.40494 4.7235,-2.26748 m 35.264105,-17.75042 c 0.248989,0.12758 0.171708,0.0994 0.267923,0.12486 1.138894,0.30193 36.092396,19.76404 36.629385,20.12471 0.53699,0.36068 -0.239911,0.66714 -0.552737,0.66235 -0.312825,-0.005 -0.829256,-0.12531 -1.175838,-0.30081 -0.346582,-0.17553 -35.183837,-20.36795 -35.485598,-19.87842 z"
         inkscape:label="string"
         sodipodi:nodetypes="ccccccsccszzzccszzzcc" /><path
         style="fill:#4e4b46;fill-opacity:1"
         d="m -89.489297,122.20945 c 0.08893,-0.77203 0.100613,-1.13813 0.602237,-1.63068 0.82329,-0.80841 1.102395,-0.86183 1.953055,-0.86183 0.80921,0 1.510429,0.37882 2.056229,1.02747 0.37674,0.44772 0.489346,1.23658 0.489346,1.42696 l -0.273762,1.05707 c -0.22413,0.69456 -1.551098,1.51035 -2.186238,1.51035 -0.3624,0 -1.356665,-0.17356 -1.937685,-0.69848 l -0.66087,-1.01597 z"
         id="path4"
         inkscape:label="nail"
         sodipodi:nodetypes="csssccsccc" /></g></g></svg>
