<?xml version="1.0" encoding="UTF-8" standalone="no"?>
<!-- Created with Inkscape (http://www.inkscape.org/) -->

<svg
   width="133.82898mm"
   height="201.64214mm"
   viewBox="0 0 133.82898 201.64214"
   version="1.1"
   id="svg1"
   xml:space="preserve"
   xmlns="http://www.w3.org/2000/svg"
   xmlns:svg="http://www.w3.org/2000/svg"><defs
     id="defs1" /><g
     id="layer1"
     transform="translate(-42.69315,-54.333606)"><g
       id="cat"
       style="display:inline;fill:none"
       transform="matrix(1.0037691,0,0,1.0037691,-32.055116,-50.146606)"
       class="clickable"><path
         style="fill:#458f65;stroke-width:2.50686"
         d="m 136.13377,303.70232 c -5.48154,-0.8085 -12.95748,-1.30383 -22.09337,-1.46381 -14.751008,-0.25833 -17.769788,-0.7442 -23.399001,-3.76602 -6.305514,-3.38485 -11.510633,-10.80203 -14.323852,-20.41118 -1.051984,-3.59318 -1.541974,-7.57269 -1.778731,-14.44572 -0.400175,-11.61764 0.80564,-17.80394 5.670362,-29.09132 1.798926,-4.17396 4.812987,-12.00017 6.697904,-17.39155 1.884917,-5.39137 4.303016,-12.07921 5.373545,-14.86187 1.704527,-4.43063 2.001161,-6.31681 2.387034,-15.17809 0.580146,-13.32377 0.582006,-13.29597 -1.077758,-16.27608 -2.571406,-4.61697 -3.522233,-7.67098 -4.023564,-12.92361 -0.438521,-4.59446 -0.807265,-5.61172 -3.324111,-9.17008 -4.574133,-6.46701 -9.139131,-15.61872 -9.139131,-18.32177 0,-4.29532 4.174488,-4.62774 9.727056,-0.77458 1.295368,0.89893 3.872511,2.29345 5.726966,3.09896 3.78259,1.64299 4.451687,1.53821 9.719671,-1.522 1.83405,-1.06541 5.43277,-2.67152 7.99713,-3.56911 5.50571,-1.92711 5.77854,-2.36502 6.87219,-11.03102 0.88194,-6.98832 2.6229,-11.08966 5.15615,-12.14692 1.60984,-0.67188 2.0148,-0.53933 4.15369,1.35962 3.23914,2.87577 6.66323,9.15139 9.3224,17.08598 1.22402,3.65222 3.70548,9.62858 5.51436,13.2808 1.80888,3.65222 3.67041,7.72345 4.13669,9.04715 1.17316,3.33022 1.04793,10.24814 -0.25407,14.03619 -1.85566,5.39895 -1.48277,8.1646 1.72878,12.82259 3.97514,5.76544 5.44398,10.11662 6.13233,18.16598 0.67957,7.94649 1.1298,9.28988 4.89272,14.59872 1.49994,2.11617 3.62693,6.1004 4.72664,8.85389 1.09973,2.75346 3.73651,8.58505 5.85955,12.95904 4.72071,9.72595 6.43515,15.66389 7.37909,25.55738 0.81308,8.52219 0.36649,14.70678 -1.45056,20.08748 -0.67539,2.00004 -0.98772,3.63643 -0.69407,3.63643 0.29368,0 1.67625,-1.51923 3.07238,-3.37607 5.1355,-6.83016 7.40653,-17.77452 6.51715,-31.40705 -0.23835,-3.65223 -0.47126,-10.50799 -0.51781,-15.23501 -0.13279,-13.49105 2.59834,-21.10308 10.06472,-28.05167 5.43297,-5.05619 8.7157,-6.35985 11.98229,-4.75849 1.74717,0.85651 3.17727,3.68365 2.88816,5.70961 -0.12704,0.88967 -2.09789,3.87787 -4.37984,6.6404 -2.28195,2.76253 -4.7143,6.01885 -5.40522,7.23626 -3.17601,5.59612 -3.57425,14.43372 -1.35089,29.97753 1.03718,7.25109 1.34403,11.91021 1.06626,16.18914 -0.43465,6.69465 -2.96705,16.69236 -5.30312,20.93604 -8.08267,14.68303 -26.49301,25.3379 -43.47741,25.16225 -2.46823,-0.0254 -8.21597,-0.59631 -12.77271,-1.26842 z"
         id="path1" /></g></g></svg>
