<?xml version="1.0" encoding="UTF-8" standalone="no"?>
<!-- Created with Inkscape (http://www.inkscape.org/) -->

<svg
   width="210mm"
   height="297mm"
   viewBox="0 0 210 297"
   version="1.1"
   id="svg1"
   xml:space="preserve"
   inkscape:version="1.4 (e7c3feb1, 2024-10-09)"
   sodipodi:docname="home_icon.svg"
   xmlns:inkscape="http://www.inkscape.org/namespaces/inkscape"
   xmlns:sodipodi="http://sodipodi.sourceforge.net/DTD/sodipodi-0.dtd"
   xmlns="http://www.w3.org/2000/svg"
   xmlns:svg="http://www.w3.org/2000/svg"><sodipodi:namedview
     id="namedview1"
     pagecolor="#ffffff"
     bordercolor="#666666"
     borderopacity="1.0"
     inkscape:showpageshadow="2"
     inkscape:pageopacity="0.0"
     inkscape:pagecheckerboard="0"
     inkscape:deskcolor="#d1d1d1"
     inkscape:document-units="mm"
     inkscape:zoom="0.53491015"
     inkscape:cx="398.19772"
     inkscape:cy="189.7515"
     inkscape:window-width="1296"
     inkscape:window-height="780"
     inkscape:window-x="0"
     inkscape:window-y="25"
     inkscape:window-maximized="0"
     inkscape:current-layer="layer1" /><defs
     id="defs1" /><g
     inkscape:label="Layer 1"
     inkscape:groupmode="layer"
     id="layer1"><path
       style="fill:#458f65;fill-opacity:1;stroke:#000000;stroke-width:3.36;stroke-dasharray:none;stroke-opacity:1"
       d="m 128.25063,68.025335 c 0,-17.150231 0.0234,-17.657453 0.82754,-17.951072 0.45514,-0.166187 3.04046,-0.302157 5.74514,-0.302157 5.24183,0 6.26224,-0.245113 6.26224,-1.50427 0,-0.475201 -2.46879,-2.428816 -7.69741,-6.091173 -0.1196,-0.08378 -2.38335,-1.672634 -5.03055,-3.530802 l -4.81309,-3.378485 v -8.62316 c 0,-8.055408 -0.0539,-8.668529 -0.81786,-9.312242 -0.8037,-0.677154 -0.94878,-0.689084 -8.38049,-0.689084 -7.43171,0 -7.57679,0.01193 -8.38049,0.689084 -0.55761,0.46981 -0.81786,1.146112 -0.81786,2.125344 0,0.954947 -0.19873,1.488288 -0.593,1.591512 -0.36509,0.09558 -2.21498,-1.00053 -4.813082,-2.851901 -2.32106,-1.653933 -6.578501,-4.65044 -9.461013,-6.658905 L 85.039782,7.8862688 79.798871,11.542735 c -2.882513,2.011056 -7.45495,5.233743 -10.160974,7.161527 -2.706023,1.927784 -7.032915,5.010949 -9.615293,6.851479 -2.582388,1.840531 -7.099332,5.05396 -10.037647,7.140954 C 29.91703,46.950333 28.994026,47.63502 28.994026,48.267836 c 0,1.259157 1.020398,1.50427 6.262225,1.50427 2.704682,0 5.289998,0.13597 5.74515,0.302157 0.804149,0.293619 0.827536,0.800841 0.827536,17.951072 v 17.64892 h 43.210845 43.210848 z"
       id="path126" /><g
       id="g128"
       inkscape:label="cat"
       transform="translate(-119.68132,-38.120177)"><path
         style="fill:#ffffff;fill-opacity:1;stroke:none;stroke-width:3.83199;stroke-dasharray:none;stroke-opacity:1"
         d="m 181.61686,69.346875 c 0,0 -0.62027,-0.620276 -0.99244,2.977328 -0.37216,3.5976 -1.11649,7.815479 -0.99244,9.304141 0.12406,1.488665 0,4.465989 -0.12405,5.830596 -0.12406,1.364608 -0.99245,-0.24811 -1.24056,3.721659 -0.24811,3.969766 -1.24055,3.473545 -1.24055,6.202762 0,2.729209 0.62028,5.210319 0.62028,6.823039 0,1.61272 2.23299,5.70654 2.4811,6.57493 0.24811,0.86838 4.21788,5.08626 4.83816,5.08626 0.62027,0 6.45087,2.97733 7.31925,2.97733 0.86839,0 8.55982,0.49622 9.4282,0.37216 0.86839,-0.12405 11.53714,-0.37216 12.03336,-0.37216 0.49622,0 6.32682,0.24811 7.31926,-0.12406 0.99244,-0.37216 4.7141,-2.60516 5.70654,-3.22544 0.99244,-0.62027 5.70654,-4.9622 5.8306,-5.95465 0.12405,-0.99244 2.23299,-5.45843 2.23299,-7.81548 0,-2.357046 -0.74433,-7.815477 -0.99244,-9.80036 -0.24811,-1.984883 -1.36461,-1.984883 -1.36461,-5.086265 0,-3.10138 -0.24811,-5.334376 -0.24811,-7.443314 0,-2.108938 -0.37216,-6.450873 -0.86839,-8.06359 -0.49622,-1.612717 -0.62027,-2.481106 -2.10893,-2.481106 -1.48867,0 -3.59761,-0.620276 -5.33438,0 -1.73677,0.620276 0.24811,1.984885 -3.96977,2.481106 -4.21787,0.496221 -4.7141,2.232993 -5.95465,2.357049 -1.24055,0.124055 -3.22543,0.124055 -5.21032,0.124055 -1.98488,0 -4.09382,0 -6.69898,0 -2.60516,0 -2.35705,0.868386 -4.83815,0.372165 -2.48111,-0.49622 -2.48111,-2.977324 -5.95466,-2.977324 -3.47354,0 -9.67631,-1.860831 -9.67631,-1.860831 z"
         id="path128" /><path
         style="fill:#000000;stroke-width:0.786796"
         d="m 194.36465,120.30545 c -1.02571,-0.12813 -3.42089,-0.53885 -4.12303,-0.70701 -0.21671,-0.0519 -0.71202,-0.16222 -1.10068,-0.24513 -0.38866,-0.0829 -1.0979,-0.30256 -1.57609,-0.48809 -1.10897,-0.43026 -3.25339,-1.44247 -3.33822,-1.5757 -0.0356,-0.056 -0.25656,-0.1816 -0.49091,-0.27911 -0.63072,-0.26245 -1.7924,-1.19821 -3.1891,-2.56889 -1.53568,-1.50708 -1.86863,-1.90299 -2.43958,-2.90088 -0.24915,-0.43545 -0.52846,-0.87779 -0.62069,-0.98298 -0.55681,-0.63506 -1.64791,-3.44237 -2.1556,-5.54621 -0.5162,-2.13905 -0.65284,-5.6462 -0.31046,-7.96821 0.21233,-1.43996 0.50244,-2.9325 0.94185,-4.84543 0.14496,-0.63112 0.31994,-1.40567 0.38883,-1.72123 0.18032,-0.82607 0.4945,-1.89933 0.79778,-2.72529 l 0.26334,-0.71718 -0.0201,-3.68153 c -0.0196,-3.579651 0.0925,-6.767902 0.28223,-8.032433 0.33629,-2.241064 0.77809,-4.767121 0.91496,-5.23144 0.19509,-0.661844 0.77414,-1.365442 1.85953,-2.25954 0.95348,-0.785419 1.30337,-1.015401 1.49741,-0.984214 0.0426,0.0071 0.1091,-0.03375 0.14776,-0.09015 0.0933,-0.136207 2.41837,0.17517 2.94053,0.393798 0.39585,0.165739 2.94561,1.070372 4.56693,1.620304 0.51469,0.174579 1.2461,0.445472 1.62534,0.601985 1.47927,0.610493 3.27142,1.383397 3.69397,1.593114 0.2438,0.120996 0.88655,0.4058 1.42833,0.632888 0.54178,0.227097 1.11061,0.501507 1.26406,0.609808 0.33082,0.233476 1.02356,0.255634 2.08512,0.06671 1.84174,-0.327804 4.72213,-0.513186 6.79689,-0.437453 1.83236,0.06687 4.63704,0.349852 5.58121,0.563086 l 0.65593,0.148146 0.57539,-0.264262 c 0.31647,-0.145339 0.73054,-0.355615 0.92016,-0.467283 0.18963,-0.11166 0.45559,-0.232806 0.59103,-0.269198 0.13546,-0.03643 0.51223,-0.191674 0.8373,-0.345056 0.84902,-0.400619 2.91389,-1.296334 3.89098,-1.687868 0.46051,-0.18453 0.92595,-0.371521 1.0343,-0.41553 0.10836,-0.044 0.35216,-0.12132 0.54179,-0.171803 0.18962,-0.05047 0.89886,-0.292193 1.57609,-0.537126 0.67722,-0.244926 1.63027,-0.57698 2.11787,-0.737893 0.4876,-0.160913 0.93088,-0.326376 0.98505,-0.367688 0.0542,-0.04132 0.4753,-0.166149 0.93581,-0.277423 0.46051,-0.111273 0.93193,-0.248648 1.04759,-0.305274 0.29856,-0.146175 1.22837,0.01214 2.06725,0.351917 0.48619,0.196943 2.08074,1.659259 2.56362,2.351021 0.14099,0.201981 0.26034,0.534997 0.28564,0.797027 0.024,0.247544 0.0642,0.482691 0.0896,0.522545 0.0545,0.08561 0.43772,2.356675 0.78374,4.644674 0.3193,2.11134 0.4756,5.28987 0.43496,8.845251 l -0.0323,2.82091 0.3719,1.05186 c 0.62721,1.77391 1.35039,4.93785 1.86876,8.17587 0.29062,1.81533 0.31159,5.46441 0.0409,7.124 -0.21822,1.33815 -0.42123,2.23925 -0.65848,2.92293 -0.10319,0.29735 -0.23141,0.70803 -0.28493,0.91259 -0.0535,0.20457 -0.22444,0.7162 -0.37981,1.13694 -0.43776,1.18544 -2.13718,3.95206 -3.02092,4.918 -0.24666,0.2696 -0.52452,0.60285 -0.61747,0.74055 -0.093,0.13772 -0.34494,0.37412 -0.56001,0.52535 -0.21506,0.15123 -0.66015,0.52144 -0.9891,0.82268 -0.76967,0.70485 -1.85963,1.49671 -2.4052,1.74737 -0.23566,0.10827 -0.638,0.33677 -0.8941,0.50778 -0.2561,0.17101 -1.26316,0.62058 -2.23791,0.99904 -2.12042,0.82327 -3.39085,1.11977 -6.83187,1.59446 l -1.72385,0.2378 -10.14608,-0.0106 c -7.71652,-0.008 -10.38536,-0.0405 -11.14533,-0.13535 z m 23.31078,-3.65465 c 2.74383,-0.45775 4.22656,-0.91044 6.6271,-2.02332 0.89981,-0.41714 1.38897,-0.72579 2.58552,-1.6314 0.17372,-0.13149 0.56833,-0.42523 0.8769,-0.65277 0.30858,-0.22754 0.58818,-0.48573 0.62133,-0.57375 0.0331,-0.088 0.29581,-0.40927 0.58368,-0.71389 0.61225,-0.64786 1.88553,-2.50764 2.14133,-3.12768 0.0976,-0.23667 0.28409,-0.71001 0.41433,-1.05186 0.13024,-0.34186 0.27405,-0.70762 0.31959,-0.81281 0.34061,-0.78682 0.60687,-2.05804 0.80913,-3.86313 0.13014,-1.16149 0.0739,-4.30649 -0.0977,-5.46022 -0.0509,-0.34187 -0.14045,-0.98733 -0.19916,-1.43437 -0.10549,-0.80331 -0.88622,-4.06122 -1.30618,-5.45058 -0.11923,-0.39445 -0.34714,-0.99688 -0.50646,-1.33874 -0.23615,-0.5067 -0.30065,-0.80147 -0.34906,-1.59523 l -0.0593,-0.97365 c 0.35306,-3.0479 0.0457,-2.42749 0.0744,-5.559171 0.003,-0.30488 -0.60444,-7.257307 -1.0677,-8.533981 -0.0812,-0.223785 -0.33348,-0.59089 -0.56062,-0.815794 -0.39559,-0.391669 -0.43174,-0.406375 -0.85786,-0.348937 -0.89777,0.121012 -4.31026,1.25644 -6.31826,2.102247 -0.30475,0.128369 -0.59288,0.233366 -0.64028,0.233318 -0.0474,-4.7e-5 -0.64028,0.24163 -1.31751,0.537047 -0.67723,0.295418 -1.56377,0.679689 -1.97011,0.853937 -0.40633,0.174247 -1.20423,0.519438 -1.7731,0.767093 -2.44805,1.065743 -2.96913,1.181953 -3.79602,0.846563 -1.04226,-0.422745 -5.18531,-0.778937 -7.77839,-0.668743 -1.51415,0.06435 -1.9949,0.122242 -3.79247,0.456708 -0.56887,0.105848 -1.36616,0.25278 -1.77175,0.32651 l -0.73743,0.134063 -1.82851,-0.811228 c -1.00568,-0.446174 -2.13664,-0.936326 -2.51325,-1.089219 -0.37661,-0.152893 -1.23883,-0.523586 -1.91606,-0.823759 -0.67722,-0.30018 -1.69676,-0.715473 -2.26563,-0.922872 -0.56887,-0.207406 -1.12296,-0.413401 -1.23132,-0.457773 -0.63601,-0.260437 -0.84474,-0.335374 -1.37908,-0.495088 -0.32507,-0.09717 -1.05404,-0.328734 -1.61995,-0.514589 -0.56591,-0.185863 -1.12819,-0.337928 -1.24954,-0.337928 -0.12133,0 -0.3368,-0.0429 -0.47882,-0.0953 -0.33297,-0.122888 -0.77838,0.08818 -0.9784,0.463656 -0.24387,0.457797 -0.63233,2.099274 -0.84065,3.552239 -0.49668,3.46425 -0.53365,4.05969 -0.54631,8.797431 l -0.0122,4.54214 -0.4763,1.38656 c -0.82082,2.38952 -1.13539,3.69369 -1.62607,6.7415 -0.41972,2.60711 -0.47814,4.36647 -0.20799,6.26338 0.21407,1.50317 0.74061,3.57909 1.11251,4.38617 1.36304,2.95793 2.57478,4.52188 4.97371,6.41937 0.90394,0.71499 1.35397,0.97131 3.03352,1.72778 1.84974,0.83313 2.96582,1.15966 5.2242,1.52844 1.97063,0.3218 3.22621,0.35244 13.68888,0.33412 9.4861,-0.0166 9.78563,-0.0227 10.98337,-0.22249 z m -15.95344,-9.401 c -0.6193,-0.11785 -1.42866,-0.52352 -1.72379,-0.86402 -0.28071,-0.32384 -0.32775,-0.76298 -0.10127,-0.94543 0.168,-0.13535 1.25126,-0.0799 1.45487,0.0745 0.18694,0.14172 0.99815,0.30941 1.49683,0.30941 0.82558,0 1.7468,-0.65423 1.86041,-1.32125 0.22116,-1.2984 -0.0927,-2.14593 -1.22835,-3.31652 -0.54218,-0.55888 -0.5758,-0.81251 -0.16533,-1.24731 l 0.3346,-0.35443 1.58122,-0.049 c 0.86967,-0.027 1.74748,-0.0187 1.9507,0.0183 0.52116,0.0949 0.84081,0.43376 0.83673,0.88698 -0.003,0.30495 -0.0991,0.46988 -0.60284,1.03231 -0.76821,0.85765 -0.97934,1.31495 -1.03213,2.23548 -0.0563,0.98136 0.18897,1.48461 0.88721,1.82058 0.60893,0.293 1.28154,0.29712 2.46103,0.0151 0.47998,-0.11477 1.03408,-0.1956 1.23132,-0.17962 0.34413,0.0278 0.35982,0.045 0.38833,0.42379 0.0272,0.36058 -0.006,0.42463 -0.38621,0.74032 -1.16122,0.96489 -3.16472,1.08028 -4.75147,0.27366 -0.547,-0.27806 -0.70601,-0.32203 -0.8373,-0.23152 -0.96158,0.66287 -2.36649,0.92376 -3.65456,0.67865 z m -10.64307,-6.49053 c -0.53349,-0.10913 -1.2718,-0.41657 -1.92087,-0.79985 -0.83631,-0.49385 -1.70847,-1.6662 -2.18921,-2.94271 -0.24712,-0.65615 -0.26655,-0.81721 -0.26986,-2.23704 -0.003,-1.47579 0.008,-1.56864 0.33704,-2.62096 0.58041,-1.85904 1.47123,-2.95613 2.92546,-3.60282 1.55862,-0.69311 3.0639,-0.69156 4.61438,0.005 0.92199,0.41407 1.5484,0.92526 2.18133,1.78016 0.76213,1.02939 1.08956,1.73421 1.37742,2.96505 0.21927,0.93755 0.24804,1.23954 0.20415,2.14319 -0.0758,1.56176 -0.37201,2.2612 -1.52587,3.6036 -0.55701,0.64802 -0.73816,0.78642 -1.53285,1.17103 -0.58114,0.28127 -1.12858,0.47 -1.54147,0.53143 -0.72438,0.10777 -2.14239,0.11 -2.65965,0.004 z m 5.39317,-4.75134 c 0.2878,-0.31615 0.32015,-0.4116 0.32015,-0.94443 0,-0.45309 -0.0477,-0.65154 -0.2023,-0.84238 -0.26944,-0.33252 -0.89198,-0.49779 -1.24391,-0.33021 -0.84727,0.40344 -0.88183,1.48055 -0.0741,2.30864 0.35181,0.36068 0.75618,0.29612 1.20014,-0.19162 z m -4.14795,-1.5828 c 0.67562,-0.4437 0.91558,-1.44177 0.5252,-2.18459 -0.23016,-0.43796 -0.90317,-0.95115 -1.24734,-0.95115 -0.37044,0 -0.97836,0.34783 -1.2808,0.73283 -0.24262,0.30885 -0.27591,0.43232 -0.27106,1.00516 0.005,0.61028 0.0278,0.67574 0.34476,0.99922 0.74047,0.75557 1.2312,0.85694 1.92924,0.39853 z m 25.25279,6.34089 c -0.8103,-0.13314 -1.24246,-0.29197 -1.87595,-0.68943 -1.21403,-0.76172 -1.86681,-1.57577 -2.45905,-3.06658 -0.26072,-0.65629 -0.29634,-0.86617 -0.30113,-1.77422 -0.005,-0.84778 0.048,-1.23276 0.29668,-2.17736 0.41893,-1.59123 0.89961,-2.50295 1.79612,-3.40682 0.99322,-1.00137 1.88264,-1.43053 3.33047,-1.60701 2.49647,-0.3043 4.84234,1.15013 5.69632,3.53166 0.46534,1.29776 0.55969,1.85385 0.55969,3.29903 0,1.37712 -0.0895,1.80575 -0.60901,2.91654 -0.58545,1.2518 -1.81276,2.32485 -3.1647,2.76696 -0.64117,0.20969 -2.52707,0.32922 -3.26944,0.20723 z m -1.74417,-4.50575 c 0.63095,-0.48178 0.86401,-1.34734 0.53107,-1.97232 -0.30424,-0.57113 -1.10337,-0.62729 -1.61073,-0.1132 -0.23311,0.23619 -0.2791,0.36448 -0.2791,0.77853 0,0.63351 0.1701,1.01567 0.56915,1.27871 0.39916,0.2631 0.47838,0.26594 0.78961,0.0283 z m 6.55969,0.0367 c 0.31347,-0.21315 0.5975,-0.85661 0.60013,-1.35954 0.002,-0.34702 -0.0534,-0.46985 -0.33277,-0.74109 -0.43605,-0.4233 -0.86213,-0.43876 -1.34339,-0.0487 -0.32388,0.26248 -0.34105,0.30721 -0.34105,0.88839 0,0.54939 0.0336,0.65319 0.32842,1.01454 0.36448,0.44673 0.68677,0.51968 1.08866,0.24643 z m -1.71078,-1.89468 c 0.70848,-0.52458 0.85021,-1.64437 0.30866,-2.43876 -0.3037,-0.44551 -0.57708,-0.57854 -1.18887,-0.57854 -0.55394,0 -1.02815,0.3097 -1.31336,0.85774 -0.42231,0.81152 -0.21701,1.60781 0.56316,2.18428 0.39413,0.29123 0.48565,0.31906 0.87759,0.26691 0.24067,-0.032 0.57944,-0.16325 0.75282,-0.29163 z"
         id="path125"
         sodipodi:nodetypes="cssssssssssssscssssccsssssscsscsscssssssssssscssscsssssssssssssscscccssssssscsssssscssssssssssssscsssssssscssccsssssssscssssssssccccsssscsssssscsscsssssssssccsssssssssssccsssscssssssssssssssssccssssssssssss" /></g></g></svg>
